<?xml version="1.0" encoding="UTF-8" standalone="no"?>
<svg
   xmlns:dc="http://purl.org/dc/elements/1.1/"
   xmlns:cc="http://creativecommons.org/ns#"
   xmlns:rdf="http://www.w3.org/1999/02/22-rdf-syntax-ns#"
   xmlns:svg="http://www.w3.org/2000/svg"
   xmlns="http://www.w3.org/2000/svg"
   xmlns:sodipodi="http://sodipodi.sourceforge.net/DTD/sodipodi-0.dtd"
   xmlns:inkscape="http://www.inkscape.org/namespaces/inkscape"
   width="105mm"
   height="74mm"
   viewBox="0 0 105 74"
   version="1.1"
   id="svg8"
   inkscape:version="1.0.2 (394de47547, 2021-03-26)"
   sodipodi:docname="logo.svg"
   inkscape:export-filename="/home/thedatacurious/Webby2/media/logo.png"
   inkscape:export-xdpi="96"
   inkscape:export-ydpi="96">
  <defs
     id="defs2" />
  <sodipodi:namedview
     id="base"
     pagecolor="#ffffff"
     bordercolor="#666666"
     borderopacity="1.0"
     inkscape:pageopacity="0.0"
     inkscape:pageshadow="2"
     inkscape:zoom="0.35"
     inkscape:cx="-234.28571"
     inkscape:cy="560"
     inkscape:document-units="mm"
     inkscape:current-layer="layer1"
     inkscape:document-rotation="0"
     showgrid="false"
     inkscape:window-width="1515"
     inkscape:window-height="1016"
     inkscape:window-x="253"
     inkscape:window-y="93"
     inkscape:window-maximized="0" />
  <metadata
     id="metadata5">
    <rdf:RDF>
      <cc:Work
         rdf:about="">
        <dc:format>image/svg+xml</dc:format>
        <dc:type
           rdf:resource="http://purl.org/dc/dcmitype/StillImage" />
        <dc:title></dc:title>
      </cc:Work>
    </rdf:RDF>
  </metadata>
  <g
     inkscape:label="Layer 1"
     inkscape:groupmode="layer"
     id="layer1">
    <path
       id="shape0"
       fill="none"
       stroke="#000000"
       stroke-width="5.66259"
       stroke-linecap="butt"
       stroke-linejoin="round"
       d="m 12.480228,33.862994 h 35.03122 v 25.431873 h -35.03122 z"
       inkscape:export-xdpi="96"
       inkscape:export-ydpi="96"
       style="stroke:#496b6e;stroke-opacity:1" />
    <path
       id="shape1"
       fill="none"
       stroke="#000000"
       stroke-width="5.66259"
       stroke-linecap="butt"
       stroke-linejoin="round"
       d="m 57.871562,33.862994 h 35.03122 v 25.431873 h -35.03122 z"
       inkscape:export-xdpi="96"
       inkscape:export-ydpi="96"
       style="stroke:#496b6e;stroke-opacity:1" />
    <path
       id="shape2"
       fill="#000000"
       stroke="#000000"
       stroke-width="0.975282"
       stroke-linecap="butt"
       stroke-linejoin="round"
       d="m 47.873228,40.876902 h 10.046224 v 4.057284 H 47.873228 Z"
       inkscape:export-xdpi="96"
       inkscape:export-ydpi="96"
       style="stroke:#496b6e;stroke-opacity:1;fill:#496b6e;fill-opacity:1" />
    <path
       id="shape3"
       fill="#000000"
       stroke="#000000"
       stroke-width="0.658177"
       stroke-linecap="butt"
       stroke-linejoin="round"
       d="M 30.448568,16.781084"
       inkscape:export-xdpi="96"
       inkscape:export-ydpi="96"
       style="stroke:#496b6e;stroke-opacity:1;fill:#496b6e;fill-opacity:1" />
    <path
       id="path16"
       fill="#000000"
       stroke="#000000"
       stroke-width="1.50616"
       stroke-linecap="butt"
       stroke-linejoin="round"
       d="m 99.236238,42.067901 c -0.20982,-0.846699 -2.102346,-1.39991 -4.227056,-1.23565 -2.12472,0.164261 -3.67706,0.983793 -3.46724,1.830492 0.20982,0.846682 2.10234,1.399898 4.22706,1.235637 2.12472,-0.164261 3.677056,-0.983797 3.467236,-1.830479 z"
       inkscape:export-xdpi="96"
       inkscape:export-ydpi="96"
       style="stroke:#496b6e;stroke-opacity:1;fill:#496b6e;fill-opacity:1" />
    <path
       id="shape01"
       fill="#000000"
       stroke="#000000"
       stroke-width="1.50616"
       stroke-linecap="butt"
       stroke-linejoin="round"
       d="m 6.0997572,42.494089 c 0.20982,-0.846699 2.10235,-1.39991 4.2270608,-1.23565 2.12472,0.164261 3.67706,0.983793 3.46724,1.830492 -0.20982,0.846682 -2.10234,1.399898 -4.2270603,1.235637 C 7.4422772,44.160307 5.8899372,43.340771 6.0997572,42.494089 Z"
       inkscape:export-xdpi="96"
       inkscape:export-ydpi="96"
       style="stroke:#496b6e;stroke-opacity:1;fill:#496b6e;fill-opacity:1" />
    <path
       id="shape4"
       fill="#000000"
       fill-rule="evenodd"
       stroke="#000000"
       stroke-width="1.905"
       stroke-linecap="square"
       stroke-linejoin="bevel"
       d="m 41.757868,21.49572 c 0.1143,-0.310274 -1.38718,-1.34955 1.34038,1.212337 -6.2911,-7.113478 -18.21233,-2.174873 -25.43992,1.42105 -0.29107,0.144807 -3.59157,1.587818 -3.41963,1.898888 0.0267,0.04831 1.19381,-0.045 1.33738,-0.06125 3.9007,-0.44106 11.85347,-2.210302 15.81542,-1.911641 4.03063,0.303821 18.697574,5.892562 11.71919,-1.481746"
       inkscape:export-xdpi="96"
       inkscape:export-ydpi="96"
       style="stroke:#496b6e;stroke-opacity:1;fill:#496b6e;fill-opacity:1" />
    <path
       id="shape5"
       fill="#000000"
       fill-rule="evenodd"
       stroke="#000000"
       stroke-width="1.905"
       stroke-linecap="square"
       stroke-linejoin="bevel"
       d="m 66.414492,20.283381 c 5.67049,-1.62388 12.47113,-8.833852 17.3768,-7.274002 -2.78326,0.0828 -0.91112,-0.80738 1.48174,0.2694 2.76744,2.2085 5.67786,4.911986 4.84945,5.657556 -0.71015,0.639101 -3.62522,-4.763556 -10.10291,-2.963466 -5.12905,4.444471 -11.34612,9.574133 -14.68271,10.641594 -5.39307,0.313637 -5.08244,-2.933276 -4.44523,-3.098191 4.42851,-5.3594 10.74065,-2.855569 9.15987,-1.885844"
       inkscape:export-xdpi="96"
       inkscape:export-ydpi="96"
       style="stroke:#496b6e;stroke-opacity:1;fill:#496b6e;fill-opacity:1" />
  </g>
</svg>
